<?xml version="1.0" standalone="no"?>
<!DOCTYPE svg PUBLIC "-//W3C//DTD SVG 20010904//EN"
 "http://www.w3.org/TR/2001/REC-SVG-20010904/DTD/svg10.dtd">
<svg version="1.0" xmlns="http://www.w3.org/2000/svg"
 width="246.000000pt" height="246.000000pt" viewBox="0 0 246.000000 246.000000"
 preserveAspectRatio="xMidYMid meet">

<g transform="translate(0.000000,246.000000) scale(0.100000,-0.100000)"
fill="#000000" stroke="none">
<path d="M1300 1283 c-8 -3 -22 -11 -30 -18 -26 -22 -73 -26 -104 -10 -27 14
-30 14 -45 -7 -9 -12 -23 -45 -31 -73 -20 -64 -44 -71 -59 -18 -6 21 -11 50
-11 65 0 15 -5 30 -11 34 -16 10 -35 -15 -53 -73 -26 -78 -42 -85 -55 -23 -6
28 -11 62 -11 75 0 19 -5 25 -21 25 -20 0 -21 -3 -15 -55 3 -31 11 -63 16 -73
6 -9 14 -29 20 -44 18 -51 48 -28 74 56 10 31 21 56 24 56 4 0 16 -28 27 -63
15 -47 25 -62 39 -62 20 0 20 0 59 85 25 56 26 56 66 52 36 -4 39 -6 31 -22
-12 -22 -13 -70 -2 -87 8 -12 24 -16 63 -14 38 2 99 62 102 101 2 26 5 30 22
26 11 -3 28 -6 37 -6 14 0 16 -8 12 -47 -3 -27 -1 -53 3 -59 14 -21 74 -21 95
-1 7 7 27 23 44 35 51 35 54 115 5 134 -20 7 -39 6 -79 -8 -65 -21 -120 -20
-164 5 -18 10 -40 16 -48 14z m40 -76 c0 -41 -22 -73 -56 -81 -50 -13 -62 24
-26 84 24 40 42 51 63 39 13 -6 19 -21 19 -42z m250 28 c11 -13 9 -22 -6 -50
-19 -35 -76 -71 -94 -60 -17 10 -11 56 11 91 23 38 66 47 89 19z"/>
</g>
</svg>
